<svg width="800" height="600" viewBox="0 0 800 600" fill="none" xmlns="http://www.w3.org/2000/svg">
  <defs>
    <linearGradient id="blog-gradient" x1="0%" y1="0%" x2="100%" y2="100%">
      <stop offset="0%" style="stop-color:#0ea5e9;stop-opacity:1" />
      <stop offset="100%" style="stop-color:#06b6d4;stop-opacity:1" />
    </linearGradient>
  </defs>
  <rect width="800" height="600" fill="url(#blog-gradient)"/>
  <g opacity="0.1">
    <circle cx="185" cy="142" r="92" fill="white"/>
    <circle cx="615" cy="458" r="112" fill="white"/>
  </g>
  <g transform="translate(400, 250)">
    <circle cx="0" cy="0" r="75" fill="white" opacity="0.2"/>
    <rect x="-45" y="-40" width="90" height="80" rx="4" fill="white"/>
    <rect x="-35" y="-30" width="70" height="4" rx="2" fill="#0ea5e9"/>
    <rect x="-35" y="-20" width="50" height="3" rx="1.5" fill="#0ea5e9" opacity="0.7"/>
    <rect x="-35" y="-12" width="60" height="3" rx="1.5" fill="#0ea5e9" opacity="0.7"/>
    <rect x="-35" y="-4" width="55" height="3" rx="1.5" fill="#0ea5e9" opacity="0.7"/>
    <rect x="-35" y="6" width="70" height="3" rx="1.5" fill="#0ea5e9" opacity="0.5"/>
    <rect x="-35" y="14" width="45" height="3" rx="1.5" fill="#0ea5e9" opacity="0.5"/>
    <rect x="-35" y="22" width="65" height="3" rx="1.5" fill="#0ea5e9" opacity="0.5"/>
  </g>
  <text x="400" y="380" font-family="Arial, sans-serif" font-size="28" font-weight="bold" fill="white" text-anchor="middle">INSIGHTS & ARTICLES</text>
  <text x="400" y="415" font-family="Arial, sans-serif" font-size="16" fill="white" opacity="0.9" text-anchor="middle">Prime Group Blog</text>
</svg>
