<svg width="800" height="600" viewBox="0 0 800 600" fill="none" xmlns="http://www.w3.org/2000/svg">
  <defs>
    <linearGradient id="green-gradient" x1="0%" y1="0%" x2="100%" y2="100%">
      <stop offset="0%" style="stop-color:#22c55e;stop-opacity:1" />
      <stop offset="100%" style="stop-color:#059669;stop-opacity:1" />
    </linearGradient>
  </defs>
  <rect width="800" height="600" fill="url(#green-gradient)"/>
  <g opacity="0.1">
    <circle cx="170" cy="135" r="88" fill="white"/>
    <circle cx="630" cy="465" r="108" fill="white"/>
  </g>
  <g transform="translate(400, 250)">
    <circle cx="0" cy="0" r="75" fill="white" opacity="0.2"/>
    <path d="M-5,-45 Q-20,-30 -15,-10 Q-10,5 0,0 Q10,5 15,-10 Q20,-30 5,-45 Q0,-50 -5,-45 Z" fill="white"/>
    <path d="M-10,-20 Q-18,-10 -12,5 Q-8,15 0,10 Q8,15 12,5 Q18,-10 10,-20 Q5,-25 0,-22 Q-5,-25 -10,-20 Z" fill="white" opacity="0.7"/>
    <rect x="-3" y="0" width="6" height="25" fill="white"/>
    <ellipse cx="0" cy="25" rx="15" ry="5" fill="white" opacity="0.6"/>
  </g>
  <text x="400" y="380" font-family="Arial, sans-serif" font-size="26" font-weight="bold" fill="white" text-anchor="middle">PRIME GREEN TECHNOLOGY</text>
  <text x="400" y="415" font-family="Arial, sans-serif" font-size="16" fill="white" opacity="0.9" text-anchor="middle">Solar & Renewable Energy Solutions</text>
</svg>
