<svg width="800" height="600" viewBox="0 0 800 600" fill="none" xmlns="http://www.w3.org/2000/svg">
  <defs>
    <linearGradient id="blind-gradient" x1="0%" y1="0%" x2="100%" y2="100%">
      <stop offset="0%" style="stop-color:#a855f7;stop-opacity:1" />
      <stop offset="100%" style="stop-color:#4f46e5;stop-opacity:1" />
    </linearGradient>
  </defs>
  <rect width="800" height="600" fill="url(#blind-gradient)"/>
  <g opacity="0.1">
    <circle cx="165" cy="128" r="82" fill="white"/>
    <circle cx="635" cy="472" r="102" fill="white"/>
  </g>
  <g transform="translate(400, 250)">
    <circle cx="0" cy="0" r="75" fill="white" opacity="0.2"/>
    <rect x="-50" y="-40" width="100" height="3" rx="1.5" fill="white"/>
    <rect x="-50" y="-30" width="100" height="8" rx="2" fill="white"/>
    <rect x="-50" y="-18" width="100" height="8" rx="2" fill="white"/>
    <rect x="-50" y="-6" width="100" height="8" rx="2" fill="white"/>
    <rect x="-50" y="6" width="100" height="8" rx="2" fill="white"/>
    <rect x="-50" y="18" width="100" height="8" rx="2" fill="white"/>
    <rect x="-50" y="30" width="100" height="8" rx="2" fill="white"/>
    <rect x="-50" y="42" width="100" height="3" rx="1.5" fill="white"/>
    <circle cx="52" cy="0" r="4" fill="white"/>
  </g>
  <text x="400" y="380" font-family="Arial, sans-serif" font-size="28" font-weight="bold" fill="white" text-anchor="middle">PRIME BLIND</text>
  <text x="400" y="415" font-family="Arial, sans-serif" font-size="16" fill="white" opacity="0.9" text-anchor="middle">Blinds Manufacturing & Installation</text>
</svg>
